<svg width="284" height="80" viewBox="0 0 284 80" fill="none" xmlns="http://www.w3.org/2000/svg">
<path d="M28.9595 16.1674C33.1492 16.1674 36.9425 17.155 40.3395 19.1303C43.7932 21.0492 46.5108 23.8146 48.4924 27.4266C50.5306 30.9822 51.5497 35.1303 51.5497 39.8711C51.5497 44.6118 50.5306 48.7882 48.4924 52.4002C46.5108 55.9557 43.7932 58.7212 40.3395 60.6965C36.9425 62.6153 33.1492 63.5748 28.9595 63.5748C27.4356 63.5748 26.0003 63.4456 24.6536 63.1874C21.1399 62.5136 16.1358 64.9286 16.1358 68.5063V75.2361C16.1358 77.4453 14.345 79.2361 12.1358 79.2361H4C1.79086 79.2361 0 77.4453 0 75.2361V20.9293C0 18.7201 1.79086 16.9293 4 16.9293H14.1477C14.8236 16.9293 15.3715 17.4772 15.3715 18.1531V18.1531C15.3715 19.2939 16.8945 19.8973 17.8202 19.2305C20.6554 17.1884 24.3685 16.1674 28.9595 16.1674ZM25.5625 50.7917C28.3934 50.7917 30.7147 49.8323 32.5264 47.9134C34.3382 45.9381 35.244 43.2573 35.244 39.8711C35.244 36.4848 34.3382 33.8323 32.5264 31.9134C30.7147 29.9381 28.3934 28.9504 25.5625 28.9504C22.7317 28.9504 20.4104 29.9381 18.5987 31.9134C16.7869 33.8323 15.881 36.4848 15.881 39.8711C15.881 43.2573 16.7869 45.9381 18.5987 47.9134C20.4104 49.8323 22.7317 50.7917 25.5625 50.7917Z" fill="#DD3E3E"/>
<path d="M103.712 16.9293C105.921 16.9293 107.712 18.7201 107.712 20.9293V58.8129C107.712 61.022 105.921 62.8129 103.712 62.8129H93.5642C92.8883 62.8129 92.3404 62.2649 92.3404 61.589V61.589C92.3404 60.4482 90.8174 59.8449 89.8917 60.5116C87.0565 62.5537 83.3434 63.5748 78.7524 63.5748C74.5627 63.5748 70.7411 62.6153 67.2874 60.6965C63.8904 58.7212 61.1728 55.9275 59.1346 52.3155C57.153 48.7035 56.1622 44.5271 56.1622 39.7864C56.1622 35.0457 57.153 30.8975 59.1346 27.342C61.1728 23.73 63.8904 20.9645 67.2874 19.0457C70.7411 17.1268 74.5627 16.1674 78.7524 16.1674C83.0246 16.1674 86.5797 17.1437 89.4178 19.0964C90.2702 19.6828 91.5761 19.1206 91.5761 18.086V18.086C91.5761 17.4471 92.094 16.9293 92.7328 16.9293H103.712ZM82.1494 50.7917C84.9802 50.7917 87.3015 49.8323 89.1132 47.9134C90.925 45.9381 91.8309 43.2291 91.8309 39.7864C91.8309 36.4002 90.925 33.7476 89.1132 31.8287C87.3015 29.9099 84.9802 28.9504 82.1494 28.9504C79.3185 28.9504 76.9972 29.9099 75.1855 31.8287C73.3737 33.7476 72.4679 36.4002 72.4679 39.7864C72.4679 43.2291 73.3737 45.9381 75.1855 47.9134C76.9972 49.8323 79.3185 50.7917 82.1494 50.7917Z" fill="#DD3E3E"/>
<path d="M134.83 63.5748C130.98 63.5748 127.186 63.1515 123.45 62.3049C121.213 61.7644 119.24 61.1328 117.53 60.4102C115.698 59.6357 115.042 57.4822 115.843 55.6613L117.434 52.0439C118.413 49.818 121.147 48.9795 123.413 49.8621C124.462 50.271 125.579 50.6373 126.762 50.961C129.649 51.6947 132.508 52.0615 135.339 52.0615C137.944 52.0615 139.784 51.8076 140.859 51.2996C141.992 50.7353 142.558 49.9451 142.558 48.9293C142.558 47.9134 141.878 47.2079 140.52 46.8129C139.217 46.3614 137.123 45.9381 134.235 45.543C130.555 45.0915 127.413 44.4989 124.808 43.7652C122.261 43.0316 120.053 41.6771 118.184 39.7017C116.316 37.7264 115.382 34.961 115.382 31.4055C115.382 28.4707 116.259 25.8746 118.014 23.6171C119.77 21.3032 122.317 19.4972 125.658 18.1991C129.055 16.8446 133.103 16.1674 137.802 16.1674C141.142 16.1674 144.454 16.506 147.738 17.1832C149.545 17.5558 151.188 18.0138 152.669 18.5571C154.605 19.2675 155.338 21.5012 154.502 23.3865L152.906 26.9864C151.955 29.1336 149.37 29.9714 147.16 29.1769C144.228 28.1229 141.137 27.5959 137.887 27.5959C135.339 27.5959 133.471 27.9063 132.282 28.5271C131.093 29.0915 130.498 29.8534 130.498 30.8129C130.498 31.8852 131.15 32.6471 132.452 33.0986C133.754 33.4936 135.905 33.9169 138.906 34.3684C142.699 34.9328 145.842 35.5818 148.333 36.3155C150.824 37.0492 152.975 38.4037 154.787 40.379C156.655 42.2979 157.59 45.0069 157.59 48.506C157.59 51.3843 156.712 53.9804 154.957 56.2943C153.202 58.5518 150.597 60.3296 147.144 61.6277C143.747 62.9257 139.642 63.5748 134.83 63.5748Z" fill="#DD3E3E"/>
<path d="M193.502 16.1674C197.692 16.1674 201.485 17.1268 204.882 19.0457C208.336 20.9645 211.054 23.73 213.035 27.342C215.073 30.8975 216.093 35.0457 216.093 39.7864C216.093 44.5271 215.073 48.7035 213.035 52.3155C211.054 55.9275 208.336 58.7212 204.882 60.6965C201.485 62.6153 197.692 63.5748 193.502 63.5748C188.911 63.5748 185.198 62.5537 182.363 60.5116C181.437 59.8449 179.914 60.4482 179.914 61.589V61.589C179.914 62.2649 179.366 62.8129 178.691 62.8129H168.543C166.334 62.8129 164.543 61.022 164.543 58.8129V3.99804C164.543 1.78891 166.334 -0.00195312 168.543 -0.00195312H176.679C178.888 -0.00195312 180.679 1.78891 180.679 3.99805V11.149C180.679 14.7269 185.709 17.183 189.228 16.5356C190.563 16.2901 191.988 16.1674 193.502 16.1674ZM190.105 50.7917C192.936 50.7917 195.258 49.8323 197.069 47.9134C198.881 45.9381 199.787 43.2291 199.787 39.7864C199.787 36.4002 198.881 33.7476 197.069 31.8287C195.258 29.9099 192.936 28.9504 190.105 28.9504C187.275 28.9504 184.953 29.9099 183.142 31.8287C181.33 33.7476 180.424 36.4002 180.424 39.7864C180.424 43.2291 181.33 45.9381 183.142 47.9134C184.953 49.8323 187.275 50.7917 190.105 50.7917Z" fill="#DD3E3E"/>
<path d="M268 16.9293C270.209 16.9293 272 18.7201 272 20.9293V54.4319C272 62.954 269.707 69.3314 265.121 73.5642C260.592 77.8534 254.052 79.998 245.503 79.998C241.031 79.998 236.841 79.4901 232.934 78.4742C230.374 77.7985 228.063 76.9106 226.003 75.8104C224.257 74.8774 223.759 72.6877 224.674 70.931L226.639 67.1549C227.821 64.8838 230.841 64.2922 233.182 65.3295C233.984 65.6848 234.835 66.0029 235.737 66.2838C238.511 67.1868 241.257 67.6383 243.975 67.6383C248.051 67.6383 251.052 66.707 252.977 64.8446C254.902 62.9822 255.864 60.2167 255.864 56.5483V56.5483C255.864 56.1648 255.4 55.9629 255.108 56.2113C251.789 59.0321 247.738 60.4425 242.956 60.4425C237.011 60.4425 232.255 58.6929 228.688 55.1938C225.178 51.6947 223.423 46.446 223.423 39.4478V20.9293C223.423 18.7201 225.214 16.9293 227.423 16.9293H235.559C237.768 16.9293 239.559 18.7201 239.559 20.9293V36.8234C239.559 40.3226 240.21 42.8622 241.512 44.4425C242.814 46.0227 244.711 46.8129 247.202 46.8129C249.75 46.8129 251.816 45.9099 253.401 44.1039C255.043 42.2979 255.864 39.5889 255.864 35.9769V20.9293C255.864 18.7201 257.655 16.9293 259.864 16.9293H268Z" fill="#DD3E3E"/>
<path d="M281.925 5.44806C282.02 5.52983 282.113 5.61284 282.205 5.6964C282.236 5.72406 282.267 5.75172 282.299 5.78021C283.114 6.55105 283.644 7.65268 283.884 8.73488C283.897 8.79066 283.897 8.79065 283.909 8.84755C283.982 9.20135 283.994 9.54598 283.992 9.90646C283.992 9.96622 283.992 10.026 283.991 10.0875C283.986 10.5536 283.947 10.9934 283.838 11.4461C283.83 11.4778 283.823 11.5096 283.816 11.5422C283.616 12.3912 283.225 13.2032 282.672 13.8769C282.642 13.9133 282.642 13.9133 282.612 13.9504C281.682 15.0716 280.246 15.7929 278.807 15.9673C278.055 16.0277 277.298 16.0147 276.562 15.8403C276.53 15.833 276.498 15.8257 276.466 15.8182C275.022 15.4766 273.76 14.5975 272.964 13.3454C272.137 11.9735 271.762 10.2392 272.139 8.66159C272.166 8.5607 272.195 8.46083 272.225 8.36093C272.234 8.32757 272.244 8.29419 272.254 8.25982C272.717 6.71639 273.789 5.45445 275.19 4.68032C277.38 3.53632 280.051 3.8635 281.925 5.44806ZM274.073 8.25044C273.986 8.31513 273.917 8.4096 273.925 8.51629C273.93 8.59692 273.973 8.67762 274.029 8.73627C274.066 8.77417 274.102 8.80045 274.151 8.81947C274.226 8.84933 274.31 8.8488 274.392 8.84719C274.402 8.84701 274.411 8.84682 274.42 8.84663C274.501 8.84573 274.501 8.84573 274.584 8.84481C274.641 8.84324 274.697 8.84167 274.755 8.84005C274.812 8.83921 274.869 8.83838 274.928 8.83751C275.028 8.83594 275.128 8.83393 275.228 8.83152C275.294 8.82991 275.349 8.88254 275.349 8.9478C275.346 9.31921 275.344 9.69062 275.342 10.062C275.341 10.253 275.34 10.444 275.339 10.6349C275.337 10.8192 275.337 11.0035 275.336 11.1877C275.336 11.258 275.335 11.3283 275.335 11.3986C275.334 11.4971 275.334 11.5956 275.334 11.6941C275.333 11.7501 275.333 11.8062 275.333 11.8639C275.342 11.9421 275.354 11.9969 275.378 12.0462C275.43 12.1569 275.541 12.2438 275.666 12.2352C275.752 12.2292 275.843 12.1949 275.906 12.1365C275.915 12.1281 275.923 12.1195 275.93 12.1102C275.999 12.0231 276.012 11.9049 276.014 11.7943C276.015 11.7604 276.014 11.7205 276.013 11.6516C276.013 11.621 276.013 11.5905 276.013 11.559C276.013 11.4583 276.012 11.3576 276.011 11.257C276.011 11.187 276.011 11.1171 276.011 11.0471C276.011 10.8633 276.01 10.6795 276.009 10.4956C276.008 10.308 276.007 10.1203 276.007 9.93256C276.006 9.5999 276.005 9.26725 276.003 8.93459C276.003 8.87663 276.052 8.83007 276.111 8.83209C276.273 8.83695 276.435 8.83998 276.597 8.84298C276.653 8.84494 276.71 8.8469 276.768 8.84892C276.849 8.85005 276.849 8.85005 276.931 8.8512C277.006 8.85304 277.006 8.85305 277.082 8.85492C277.224 8.83912 277.224 8.83912 277.326 8.71922C277.35 8.68607 277.367 8.662 277.38 8.64145C277.449 8.52845 277.402 8.36797 277.303 8.27854C277.2 8.18501 277.052 8.15334 276.911 8.15397C276.889 8.15407 276.863 8.1545 276.829 8.15505C276.771 8.15446 276.713 8.15385 276.653 8.15324C276.59 8.15334 276.527 8.15348 276.464 8.15366C276.399 8.15344 276.334 8.15321 276.269 8.15293C276.133 8.15251 275.998 8.15262 275.862 8.15308C275.688 8.15362 275.514 8.15268 275.34 8.15132C275.206 8.15046 275.072 8.15048 274.938 8.15074C274.873 8.15075 274.809 8.15046 274.745 8.14988C274.655 8.14918 274.566 8.14981 274.476 8.15048C274.455 8.15049 274.439 8.15048 274.427 8.15048C274.357 8.15049 274.286 8.15333 274.219 8.17475C274.163 8.19287 274.117 8.2173 274.073 8.25044ZM278.202 8.23255C278.098 8.30174 278.027 8.42042 278.011 8.54242C277.998 8.64966 278.001 8.75867 278.001 8.87009C278.001 8.90211 278.001 8.93414 278.001 8.96713C278 9.07274 278 9.17835 278 9.28397C278 9.35755 278 9.43113 278 9.50471C277.999 9.65886 277.999 9.81302 277.999 9.96717C277.999 10.1645 277.999 10.3618 277.998 10.5591C277.997 10.7111 277.997 10.863 277.997 11.015C277.997 11.0877 277.997 11.1605 277.997 11.2332C277.996 11.335 277.996 11.4368 277.996 11.5386C277.996 11.5965 277.996 11.6544 277.996 11.714C278.005 11.8296 278.021 11.9163 278.059 12.0107C278.084 12.0714 278.131 12.1341 278.184 12.1741C278.275 12.2435 278.399 12.2349 278.5 12.1808C278.512 12.1744 278.523 12.1675 278.535 12.1601C278.626 12.101 278.683 12.0014 278.699 11.8953C278.712 11.8093 278.715 11.723 278.717 11.6311C278.718 11.5843 278.719 11.5375 278.72 11.4893C278.721 11.4392 278.721 11.389 278.722 11.3373C278.724 11.2599 278.724 11.2599 278.725 11.1809C278.728 11.0161 278.731 10.8513 278.734 10.6865C278.736 10.5748 278.738 10.463 278.74 10.3513C278.742 10.2072 278.745 10.0631 278.747 9.91906C278.75 9.79012 278.916 9.73598 278.997 9.83817C279.019 9.86688 279.042 9.89559 279.065 9.92518C279.216 10.1178 279.364 10.313 279.509 10.5102C279.557 10.5757 279.604 10.6487 279.674 10.6912C279.777 10.7538 279.917 10.7292 280.026 10.677C280.092 10.6451 280.138 10.5955 280.211 10.5054C280.246 10.4634 280.281 10.4214 280.317 10.3781C280.356 10.3291 280.394 10.2799 280.433 10.2307C280.479 10.1724 280.526 10.114 280.572 10.0556C280.663 9.94017 280.754 9.82417 280.844 9.70761C280.887 9.65256 280.912 9.62057 280.929 9.59856C280.951 9.57182 280.993 9.5882 280.993 9.62237C280.996 9.94086 281 10.2593 281.005 10.5778C281.006 10.6967 281.008 10.8156 281.009 10.9345C281.01 11.1053 281.013 11.2761 281.015 11.4469C281.016 11.5001 281.016 11.5533 281.016 11.6082C281.017 11.6578 281.018 11.7073 281.019 11.7584C281.019 11.7717 281.019 11.7849 281.02 11.7981C281.02 11.8597 281.023 11.9219 281.041 11.9807C281.048 12.0022 281.056 12.0219 281.065 12.0406C281.121 12.1538 281.233 12.2457 281.36 12.2348C281.443 12.2278 281.53 12.1949 281.591 12.1406C281.602 12.1309 281.612 12.121 281.621 12.1102C281.69 12.0232 281.701 11.9049 281.704 11.7946C281.706 11.7531 281.705 11.708 281.704 11.6202C281.704 11.5863 281.705 11.5524 281.705 11.5175C281.705 11.4056 281.705 11.2936 281.705 11.1817C281.705 11.1038 281.705 11.026 281.705 10.9481C281.705 10.7849 281.705 10.6218 281.704 10.4586C281.704 10.2495 281.704 10.0405 281.705 9.83143C281.705 9.67062 281.705 9.50981 281.705 9.349C281.705 9.27192 281.705 9.19484 281.705 9.11776C281.705 9.01 281.705 8.90225 281.704 8.7945C281.704 8.7332 281.704 8.6719 281.704 8.60874C281.699 8.54608 281.694 8.49578 281.683 8.44919C281.652 8.32005 281.556 8.20183 281.422 8.18373C281.345 8.17338 281.26 8.19095 281.192 8.22665C281.122 8.26338 281.078 8.31183 281.01 8.39305C280.978 8.43095 280.946 8.46887 280.913 8.50792C280.748 8.71405 280.584 8.92181 280.422 9.13076C280.412 9.14306 280.403 9.15537 280.393 9.16765C280.12 9.51647 279.602 9.53736 279.322 9.19358C279.294 9.15841 279.265 9.12325 279.235 9.08701C279.051 8.86115 278.869 8.63351 278.691 8.40219C278.666 8.37403 278.642 8.34808 278.617 8.32375C278.505 8.21297 278.333 8.14459 278.202 8.23255Z" fill="#DD3E3E"/>
</svg>
