<svg width="512" height="328" viewBox="0 0 512 328" fill="none" xmlns="http://www.w3.org/2000/svg">
<rect width="512" height="328" fill="black"/>
<path d="M148.96 140.167C153.149 140.167 156.943 141.155 160.34 143.13C163.793 145.049 166.511 147.815 168.492 151.427C170.531 154.982 171.55 159.13 171.55 163.871C171.55 168.612 170.531 172.788 168.492 176.4C166.511 179.956 163.793 182.721 160.34 184.696C156.943 186.615 153.149 187.575 148.96 187.575C147.436 187.575 146 187.446 144.654 187.187C141.14 186.514 136.136 188.929 136.136 192.506V199.236C136.136 201.445 134.345 203.236 132.136 203.236H124C121.791 203.236 120 201.445 120 199.236V144.929C120 142.72 121.791 140.929 124 140.929H134.148C134.824 140.929 135.371 141.477 135.371 142.153V142.153C135.371 143.294 136.895 143.897 137.82 143.23C140.655 141.188 144.368 140.167 148.96 140.167ZM145.563 174.792C148.393 174.792 150.715 173.832 152.526 171.913C154.338 169.938 155.244 167.257 155.244 163.871C155.244 160.485 154.338 157.832 152.526 155.913C150.715 153.938 148.393 152.95 145.563 152.95C142.732 152.95 140.41 153.938 138.599 155.913C136.787 157.832 135.881 160.485 135.881 163.871C135.881 167.257 136.787 169.938 138.599 171.913C140.41 173.832 142.732 174.792 145.563 174.792Z" fill="white"/>
<path d="M223.712 140.929C225.921 140.929 227.712 142.72 227.712 144.929V182.813C227.712 185.022 225.921 186.813 223.712 186.813H213.564C212.888 186.813 212.34 186.265 212.34 185.589V185.589C212.34 184.448 210.817 183.845 209.892 184.512C207.057 186.554 203.343 187.575 198.752 187.575C194.563 187.575 190.741 186.615 187.287 184.696C183.89 182.721 181.173 179.927 179.135 176.316C177.153 172.704 176.162 168.527 176.162 163.786C176.162 159.046 177.153 154.898 179.135 151.342C181.173 147.73 183.89 144.965 187.287 143.046C190.741 141.127 194.563 140.167 198.752 140.167C203.025 140.167 206.58 141.144 209.418 143.096C210.27 143.683 211.576 143.121 211.576 142.086V142.086C211.576 141.447 212.094 140.929 212.733 140.929H223.712ZM202.149 174.792C204.98 174.792 207.302 173.832 209.113 171.913C210.925 169.938 211.831 167.229 211.831 163.786C211.831 160.4 210.925 157.748 209.113 155.829C207.302 153.91 204.98 152.95 202.149 152.95C199.319 152.95 196.997 153.91 195.185 155.829C193.374 157.748 192.468 160.4 192.468 163.786C192.468 167.229 193.374 169.938 195.185 171.913C196.997 173.832 199.319 174.792 202.149 174.792Z" fill="white"/>
<path d="M254.83 187.575C250.98 187.575 247.186 187.151 243.45 186.305C241.213 185.764 239.24 185.133 237.53 184.41C235.698 183.636 235.042 181.482 235.843 179.661L237.434 176.044C238.413 173.818 241.147 172.98 243.413 173.862C244.462 174.271 245.579 174.637 246.762 174.961C249.649 175.695 252.508 176.062 255.339 176.062C257.944 176.062 259.784 175.808 260.859 175.3C261.992 174.735 262.558 173.945 262.558 172.929C262.558 171.913 261.878 171.208 260.52 170.813C259.217 170.361 257.123 169.938 254.235 169.543C250.555 169.092 247.413 168.499 244.808 167.765C242.261 167.032 240.053 165.677 238.184 163.702C236.316 161.726 235.382 158.961 235.382 155.405C235.382 152.471 236.259 149.875 238.014 147.617C239.77 145.303 242.317 143.497 245.658 142.199C249.055 140.845 253.103 140.167 257.802 140.167C261.142 140.167 264.454 140.506 267.738 141.183C269.545 141.556 271.188 142.014 272.669 142.557C274.605 143.267 275.338 145.501 274.502 147.386L272.906 150.986C271.955 153.134 269.37 153.971 267.16 153.177C264.228 152.123 261.137 151.596 257.887 151.596C255.339 151.596 253.471 151.906 252.282 152.527C251.093 153.092 250.498 153.853 250.498 154.813C250.498 155.885 251.15 156.647 252.452 157.099C253.754 157.494 255.905 157.917 258.906 158.368C262.699 158.933 265.842 159.582 268.333 160.316C270.824 161.049 272.975 162.404 274.787 164.379C276.655 166.298 277.59 169.007 277.59 172.506C277.59 175.384 276.712 177.98 274.957 180.294C273.202 182.552 270.597 184.33 267.144 185.628C263.747 186.926 259.642 187.575 254.83 187.575Z" fill="white"/>
<path d="M313.502 140.167C317.692 140.167 321.485 141.127 324.882 143.046C328.336 144.965 331.054 147.73 333.035 151.342C335.073 154.898 336.093 159.046 336.093 163.786C336.093 168.527 335.073 172.704 333.035 176.316C331.054 179.927 328.336 182.721 324.882 184.696C321.485 186.615 317.692 187.575 313.502 187.575C308.911 187.575 305.198 186.554 302.363 184.512C301.437 183.845 299.914 184.448 299.914 185.589V185.589C299.914 186.265 299.366 186.813 298.691 186.813H288.543C286.334 186.813 284.543 185.022 284.543 182.813V127.998C284.543 125.789 286.334 123.998 288.543 123.998H296.679C298.888 123.998 300.679 125.789 300.679 127.998V135.149C300.679 138.727 305.709 141.183 309.228 140.536C310.563 140.29 311.988 140.167 313.502 140.167ZM310.105 174.792C312.936 174.792 315.258 173.832 317.069 171.913C318.881 169.938 319.787 167.229 319.787 163.786C319.787 160.4 318.881 157.748 317.069 155.829C315.258 153.91 312.936 152.95 310.105 152.95C307.275 152.95 304.953 153.91 303.142 155.829C301.33 157.748 300.424 160.4 300.424 163.786C300.424 167.229 301.33 169.938 303.142 171.913C304.953 173.832 307.275 174.792 310.105 174.792Z" fill="white"/>
<path d="M388 140.929C390.209 140.929 392 142.72 392 144.929V178.432C392 186.954 389.707 193.331 385.121 197.564C380.592 201.853 374.052 203.998 365.503 203.998C361.031 203.998 356.841 203.49 352.934 202.474C350.374 201.799 348.063 200.911 346.003 199.81C344.257 198.877 343.759 196.688 344.674 194.931L346.639 191.155C347.821 188.884 350.841 188.292 353.182 189.329C353.984 189.685 354.835 190.003 355.737 190.284C358.511 191.187 361.257 191.638 363.975 191.638C368.051 191.638 371.052 190.707 372.977 188.845C374.902 186.982 375.864 184.217 375.864 180.548V180.548C375.864 180.165 375.4 179.963 375.108 180.211C371.789 183.032 367.738 184.442 362.956 184.442C357.011 184.442 352.255 182.693 348.688 179.194C345.178 175.695 343.423 170.446 343.423 163.448V144.929C343.423 142.72 345.214 140.929 347.423 140.929H355.559C357.768 140.929 359.559 142.72 359.559 144.929V160.823C359.559 164.323 360.21 166.862 361.512 168.442C362.814 170.023 364.711 170.813 367.202 170.813C369.75 170.813 371.816 169.91 373.401 168.104C375.043 166.298 375.864 163.589 375.864 159.977V144.929C375.864 142.72 377.655 140.929 379.864 140.929H388Z" fill="white"/>
<path d="M401.933 129.448C402.027 129.53 402.12 129.613 402.213 129.696C402.244 129.724 402.275 129.752 402.307 129.78C403.121 130.551 403.652 131.653 403.892 132.735C403.905 132.791 403.905 132.791 403.917 132.848C403.99 133.201 404.001 133.546 404 133.906C404 133.966 403.999 134.026 403.999 134.088C403.993 134.554 403.955 134.993 403.845 135.446C403.838 135.478 403.831 135.51 403.823 135.542C403.624 136.391 403.232 137.203 402.679 137.877C402.65 137.913 402.65 137.913 402.62 137.95C401.689 139.072 400.254 139.793 398.815 139.967C398.063 140.028 397.306 140.015 396.57 139.84C396.538 139.833 396.506 139.826 396.473 139.818C395.03 139.477 393.768 138.598 392.972 137.345C392.145 135.974 391.77 134.239 392.147 132.662C392.174 132.561 392.202 132.461 392.233 132.361C392.242 132.328 392.252 132.294 392.262 132.26C392.725 130.716 393.797 129.454 395.198 128.68C397.388 127.536 400.059 127.864 401.933 129.448ZM394.081 132.25C393.994 132.315 393.925 132.41 393.932 132.516C393.938 132.597 393.98 132.678 394.037 132.736C394.074 132.774 394.11 132.8 394.158 132.819C394.234 132.849 394.318 132.849 394.4 132.847C394.409 132.847 394.419 132.847 394.428 132.847C394.509 132.846 394.509 132.846 394.592 132.845C394.648 132.843 394.705 132.842 394.763 132.84C394.82 132.839 394.877 132.838 394.935 132.838C395.035 132.836 395.135 132.834 395.235 132.832C395.302 132.83 395.357 132.883 395.356 132.948C395.354 133.319 395.351 133.691 395.35 134.062C395.349 134.253 395.348 134.444 395.347 134.635C395.345 134.819 395.344 135.003 395.344 135.188C395.344 135.258 395.343 135.328 395.342 135.399C395.341 135.497 395.341 135.596 395.341 135.694C395.341 135.75 395.341 135.806 395.34 135.864C395.35 135.942 395.362 135.997 395.385 136.046C395.438 136.157 395.549 136.244 395.673 136.235C395.76 136.229 395.851 136.195 395.913 136.137C395.922 136.128 395.93 136.119 395.938 136.11C396.007 136.023 396.02 135.905 396.022 135.794C396.023 135.76 396.022 135.721 396.021 135.652C396.021 135.621 396.021 135.59 396.021 135.559C396.021 135.458 396.02 135.358 396.019 135.257C396.019 135.187 396.019 135.117 396.019 135.047C396.019 134.863 396.018 134.679 396.017 134.496C396.016 134.308 396.015 134.12 396.015 133.933C396.014 133.6 396.012 133.267 396.011 132.935C396.01 132.877 396.059 132.83 396.119 132.832C396.281 132.837 396.443 132.84 396.605 132.843C396.661 132.845 396.717 132.847 396.775 132.849C396.857 132.85 396.857 132.85 396.939 132.851C397.014 132.853 397.014 132.853 397.09 132.855C397.232 132.839 397.232 132.839 397.334 132.719C397.358 132.686 397.375 132.662 397.388 132.641C397.456 132.528 397.41 132.368 397.311 132.279C397.208 132.185 397.059 132.153 396.919 132.154C396.897 132.154 396.871 132.155 396.837 132.155C396.779 132.154 396.721 132.154 396.661 132.153C396.598 132.153 396.535 132.153 396.472 132.154C396.407 132.153 396.342 132.153 396.277 132.153C396.141 132.153 396.005 132.153 395.869 132.153C395.695 132.154 395.522 132.153 395.348 132.151C395.214 132.15 395.079 132.15 394.945 132.151C394.881 132.151 394.817 132.15 394.753 132.15C394.663 132.149 394.574 132.15 394.484 132.15C394.463 132.15 394.447 132.15 394.435 132.15C394.365 132.15 394.294 132.153 394.227 132.175C394.171 132.193 394.125 132.217 394.081 132.25ZM398.209 132.233C398.106 132.302 398.034 132.42 398.019 132.542C398.006 132.65 398.009 132.759 398.009 132.87C398.009 132.902 398.009 132.934 398.008 132.967C398.008 133.073 398.008 133.178 398.008 133.284C398.008 133.358 398.007 133.431 398.007 133.505C398.007 133.659 398.007 133.813 398.007 133.967C398.007 134.164 398.006 134.362 398.006 134.559C398.005 134.711 398.005 134.863 398.005 135.015C398.005 135.088 398.005 135.16 398.004 135.233C398.004 135.335 398.004 135.437 398.004 135.539C398.004 135.597 398.004 135.654 398.004 135.714C398.013 135.83 398.029 135.916 398.067 136.011C398.092 136.071 398.139 136.134 398.192 136.174C398.283 136.243 398.406 136.235 398.508 136.181C398.52 136.174 398.531 136.168 398.543 136.16C398.634 136.101 398.69 136.001 398.707 135.895C398.72 135.809 398.723 135.723 398.725 135.631C398.726 135.584 398.727 135.538 398.728 135.489C398.728 135.439 398.729 135.389 398.73 135.337C398.731 135.26 398.731 135.26 398.733 135.181C398.736 135.016 398.739 134.851 398.741 134.687C398.743 134.575 398.745 134.463 398.748 134.351C398.75 134.207 398.753 134.063 398.755 133.919C398.757 133.79 398.924 133.736 399.004 133.838C399.027 133.867 399.05 133.896 399.073 133.925C399.224 134.118 399.372 134.313 399.517 134.51C399.565 134.576 399.612 134.649 399.682 134.691C399.785 134.754 399.924 134.729 400.034 134.677C400.1 134.645 400.146 134.595 400.219 134.505C400.254 134.463 400.289 134.421 400.325 134.378C400.364 134.329 400.402 134.28 400.441 134.231C400.487 134.172 400.534 134.114 400.58 134.056C400.671 133.94 400.762 133.824 400.852 133.708C400.895 133.653 400.919 133.621 400.937 133.599C400.959 133.572 401.001 133.588 401.001 133.622C401.004 133.941 401.008 134.259 401.013 134.578C401.014 134.697 401.016 134.816 401.017 134.934C401.018 135.105 401.021 135.276 401.023 135.447C401.024 135.5 401.024 135.553 401.024 135.608C401.025 135.658 401.026 135.707 401.027 135.758C401.027 135.772 401.027 135.785 401.027 135.798C401.028 135.86 401.03 135.922 401.049 135.981C401.056 136.002 401.064 136.022 401.073 136.041C401.129 136.154 401.24 136.246 401.368 136.235C401.451 136.228 401.538 136.195 401.599 136.141C401.61 136.131 401.62 136.121 401.628 136.11C401.698 136.023 401.709 135.905 401.712 135.795C401.714 135.753 401.713 135.708 401.712 135.62C401.712 135.586 401.712 135.552 401.713 135.517C401.713 135.406 401.713 135.294 401.712 135.182C401.712 135.104 401.713 135.026 401.713 134.948C401.713 134.785 401.713 134.622 401.712 134.459C401.712 134.25 401.712 134.04 401.713 133.831C401.713 133.671 401.713 133.51 401.713 133.349C401.712 133.272 401.713 133.195 401.713 133.118C401.713 133.01 401.713 132.902 401.712 132.794C401.712 132.733 401.712 132.672 401.712 132.609C401.707 132.546 401.702 132.496 401.69 132.449C401.66 132.32 401.563 132.202 401.429 132.184C401.353 132.173 401.268 132.191 401.2 132.227C401.13 132.263 401.086 132.312 401.018 132.393C400.986 132.431 400.954 132.469 400.921 132.508C400.756 132.714 400.592 132.922 400.43 133.131C400.42 133.143 400.411 133.155 400.401 133.168C400.128 133.516 399.61 133.537 399.33 133.194C399.301 133.158 399.273 133.123 399.243 133.087C399.058 132.861 398.877 132.634 398.699 132.402C398.674 132.374 398.65 132.348 398.625 132.324C398.513 132.213 398.341 132.145 398.209 132.233Z" fill="white"/>
</svg>
