<svg width="284" height="80" viewBox="0 0 284 80" fill="none" xmlns="http://www.w3.org/2000/svg">
<path d="M28.9595 16.1693C33.1492 16.1693 36.9425 17.157 40.3395 19.1323C43.7932 21.0511 46.5108 23.8166 48.4924 27.4286C50.5306 30.9841 51.5497 35.1323 51.5497 39.873C51.5497 44.6138 50.5306 48.7901 48.4924 52.4021C46.5108 55.9577 43.7932 58.7231 40.3395 60.6984C36.9425 62.6173 33.1492 63.5767 28.9595 63.5767C27.4356 63.5767 26.0003 63.4476 24.6536 63.1893C21.1399 62.5155 16.1358 64.9306 16.1358 68.5082V75.2381C16.1358 77.4472 14.345 79.2381 12.1358 79.2381H4C1.79086 79.2381 0 77.4472 0 75.2381V20.9312C0 18.7221 1.79086 16.9312 4 16.9312H14.1477C14.8236 16.9312 15.3715 17.4791 15.3715 18.155V18.155C15.3715 19.2959 16.8945 19.8992 17.8202 19.2324C20.6554 17.1904 24.3685 16.1693 28.9595 16.1693ZM25.5625 50.7936C28.3934 50.7936 30.7147 49.8342 32.5264 47.9153C34.3382 45.94 35.244 43.2593 35.244 39.873C35.244 36.4868 34.3382 33.8342 32.5264 31.9153C30.7147 29.94 28.3934 28.9524 25.5625 28.9524C22.7317 28.9524 20.4104 29.94 18.5987 31.9153C16.7869 33.8342 15.881 36.4868 15.881 39.873C15.881 43.2593 16.7869 45.94 18.5987 47.9153C20.4104 49.8342 22.7317 50.7936 25.5625 50.7936Z" fill="white"/>
<path d="M103.712 16.9312C105.921 16.9312 107.712 18.7221 107.712 20.9312V58.8148C107.712 61.0239 105.921 62.8148 103.712 62.8148H93.5642C92.8883 62.8148 92.3404 62.2669 92.3404 61.591V61.591C92.3404 60.4502 90.8174 59.8468 89.8917 60.5136C87.0565 62.5557 83.3434 63.5767 78.7524 63.5767C74.5627 63.5767 70.7411 62.6173 67.2874 60.6984C63.8904 58.7231 61.1728 55.9295 59.1346 52.3175C57.153 48.7055 56.1622 44.5291 56.1622 39.7884C56.1622 35.0476 57.153 30.8995 59.1346 27.3439C61.1728 23.7319 63.8904 20.9665 67.2874 19.0476C70.7411 17.1287 74.5627 16.1693 78.7524 16.1693C83.0246 16.1693 86.5797 17.1456 89.4178 19.0983C90.2702 19.6848 91.5761 19.1226 91.5761 18.0879V18.0879C91.5761 17.4491 92.094 16.9312 92.7328 16.9312H103.712ZM82.1494 50.7936C84.9802 50.7936 87.3015 49.8342 89.1132 47.9153C90.925 45.94 91.8309 43.231 91.8309 39.7884C91.8309 36.4021 90.925 33.7496 89.1132 31.8307C87.3015 29.9118 84.9802 28.9524 82.1494 28.9524C79.3185 28.9524 76.9972 29.9118 75.1855 31.8307C73.3737 33.7496 72.4679 36.4021 72.4679 39.7884C72.4679 43.231 73.3737 45.94 75.1855 47.9153C76.9972 49.8342 79.3185 50.7936 82.1494 50.7936Z" fill="white"/>
<path d="M134.83 63.5767C130.98 63.5767 127.186 63.1534 123.45 62.3069C121.213 61.7663 119.24 61.1348 117.53 60.4122C115.698 59.6377 115.042 57.4842 115.843 55.6633L117.434 52.0458C118.413 49.8199 121.147 48.9815 123.413 49.8641C124.462 50.273 125.579 50.6393 126.762 50.963C129.649 51.6966 132.508 52.0635 135.339 52.0635C137.944 52.0635 139.784 51.8095 140.859 51.3016C141.992 50.7372 142.558 49.9471 142.558 48.9312C142.558 47.9153 141.878 47.2099 140.52 46.8148C139.217 46.3633 137.123 45.94 134.235 45.545C130.555 45.0935 127.413 44.5009 124.808 43.7672C122.261 43.0335 120.053 41.679 118.184 39.7037C116.316 37.7284 115.382 34.963 115.382 31.4074C115.382 28.4727 116.259 25.8765 118.014 23.619C119.77 21.3051 122.317 19.4991 125.658 18.2011C129.055 16.8466 133.103 16.1693 137.802 16.1693C141.142 16.1693 144.454 16.5079 147.738 17.1852C149.545 17.5578 151.188 18.0157 152.669 18.5591C154.605 19.2694 155.338 21.5032 154.502 23.3884L152.906 26.9884C151.955 29.1356 149.37 29.9733 147.16 29.1789C144.228 28.1249 141.137 27.5979 137.887 27.5979C135.339 27.5979 133.471 27.9083 132.282 28.5291C131.093 29.0935 130.498 29.8554 130.498 30.8148C130.498 31.8871 131.15 32.649 132.452 33.1005C133.754 33.4956 135.905 33.9189 138.906 34.3704C142.699 34.9347 145.842 35.5838 148.333 36.3175C150.824 37.0511 152.975 38.4056 154.787 40.381C156.655 42.2998 157.59 45.0088 157.59 48.5079C157.59 51.3862 156.712 53.9824 154.957 56.2963C153.202 58.5538 150.597 60.3316 147.144 61.6296C143.747 62.9277 139.642 63.5767 134.83 63.5767Z" fill="white"/>
<path d="M193.502 16.1693C197.692 16.1693 201.485 17.1287 204.882 19.0476C208.336 20.9665 211.054 23.7319 213.035 27.3439C215.073 30.8995 216.093 35.0476 216.093 39.7884C216.093 44.5291 215.073 48.7055 213.035 52.3175C211.054 55.9295 208.336 58.7231 204.882 60.6984C201.485 62.6173 197.692 63.5767 193.502 63.5767C188.911 63.5767 185.198 62.5557 182.363 60.5136C181.437 59.8468 179.914 60.4502 179.914 61.591V61.591C179.914 62.2669 179.366 62.8148 178.691 62.8148H168.543C166.334 62.8148 164.543 61.024 164.543 58.8148V4C164.543 1.79086 166.334 0 168.543 0H176.679C178.888 0 180.679 1.79086 180.679 4V11.1509C180.679 14.7289 185.709 17.1849 189.228 16.5376C190.563 16.2921 191.988 16.1693 193.502 16.1693ZM190.105 50.7936C192.936 50.7936 195.258 49.8342 197.069 47.9153C198.881 45.94 199.787 43.231 199.787 39.7884C199.787 36.4021 198.881 33.7496 197.069 31.8307C195.258 29.9118 192.936 28.9524 190.105 28.9524C187.275 28.9524 184.953 29.9118 183.142 31.8307C181.33 33.7496 180.424 36.4021 180.424 39.7884C180.424 43.231 181.33 45.94 183.142 47.9153C184.953 49.8342 187.275 50.7936 190.105 50.7936Z" fill="white"/>
<path d="M268 16.9312C270.209 16.9312 272 18.7221 272 20.9312V54.4339C272 62.9559 269.707 69.3333 265.121 73.5661C260.592 77.8554 254.052 80 245.503 80C241.031 80 236.841 79.4921 232.934 78.4762C230.374 77.8005 228.063 76.9125 226.003 75.8124C224.257 74.8794 223.759 72.6897 224.674 70.933L226.639 67.1568C227.821 64.8858 230.841 64.2941 233.182 65.3314C233.984 65.6868 234.835 66.0049 235.737 66.2857C238.511 67.1887 241.257 67.6402 243.975 67.6402C248.051 67.6402 251.052 66.709 252.977 64.8466C254.902 62.9841 255.864 60.2187 255.864 56.5503V56.5503C255.864 56.1667 255.4 55.9648 255.108 56.2132C251.789 59.034 247.738 60.4444 242.956 60.4444C237.011 60.4444 232.255 58.6949 228.688 55.1958C225.178 51.6966 223.423 46.448 223.423 39.4497V20.9312C223.423 18.7221 225.214 16.9312 227.423 16.9312H235.559C237.768 16.9312 239.559 18.7221 239.559 20.9312V36.8254C239.559 40.3245 240.21 42.8642 241.512 44.4444C242.814 46.0247 244.711 46.8148 247.202 46.8148C249.75 46.8148 251.816 45.9118 253.401 44.1058C255.043 42.2998 255.864 39.5908 255.864 35.9788V20.9312C255.864 18.7221 257.655 16.9312 259.864 16.9312H268Z" fill="white"/>
<path d="M281.925 5.45002C282.02 5.53178 282.113 5.61479 282.205 5.69836C282.236 5.72601 282.267 5.75367 282.299 5.78217C283.114 6.553 283.644 7.65464 283.884 8.73683C283.897 8.79261 283.897 8.7926 283.909 8.8495C283.982 9.2033 283.994 9.54793 283.992 9.90842C283.992 9.96818 283.992 10.0279 283.991 10.0895C283.986 10.5555 283.947 10.9954 283.838 11.4481C283.83 11.4798 283.823 11.5115 283.816 11.5442C283.616 12.3932 283.225 13.2051 282.672 13.8789C282.642 13.9153 282.642 13.9152 282.612 13.9523C281.682 15.0735 280.246 15.7949 278.807 15.9693C278.055 16.0296 277.298 16.0167 276.562 15.8422C276.53 15.8349 276.498 15.8277 276.466 15.8202C275.022 15.4785 273.76 14.5995 272.964 13.3474C272.137 11.9755 271.762 10.2412 272.139 8.66354C272.166 8.56265 272.195 8.46278 272.225 8.36288C272.234 8.32952 272.244 8.29615 272.254 8.26177C272.717 6.71835 273.789 5.4564 275.19 4.68227C277.38 3.53827 280.051 3.86545 281.925 5.45002ZM274.073 8.25239C273.986 8.31708 273.917 8.41156 273.925 8.51825C273.93 8.59887 273.973 8.67957 274.029 8.73823C274.066 8.77613 274.102 8.8024 274.151 8.82142C274.226 8.85129 274.31 8.85075 274.392 8.84915C274.402 8.84896 274.411 8.84877 274.42 8.84858C274.501 8.84768 274.501 8.84768 274.584 8.84676C274.641 8.84519 274.697 8.84362 274.755 8.84201C274.812 8.84116 274.869 8.84033 274.928 8.83946C275.028 8.8379 275.128 8.83589 275.228 8.83347C275.294 8.83186 275.349 8.8845 275.349 8.94975C275.346 9.32117 275.344 9.69257 275.342 10.064C275.341 10.2549 275.34 10.4459 275.339 10.6369C275.337 10.8211 275.337 11.0054 275.336 11.1897C275.336 11.26 275.335 11.3303 275.335 11.4006C275.334 11.4991 275.334 11.5975 275.334 11.696C275.333 11.7521 275.333 11.8081 275.333 11.8659C275.342 11.944 275.354 11.9989 275.378 12.0482C275.43 12.1589 275.541 12.2458 275.666 12.2371C275.752 12.2311 275.843 12.1969 275.906 12.1385C275.915 12.1301 275.923 12.1214 275.93 12.1122C275.999 12.025 276.012 11.9068 276.014 11.7963C276.015 11.7623 276.014 11.7225 276.013 11.6536C276.013 11.623 276.013 11.5924 276.013 11.5609C276.013 11.4602 276.012 11.3596 276.011 11.2589C276.011 11.189 276.011 11.119 276.011 11.0491C276.011 10.8652 276.01 10.6814 276.009 10.4976C276.008 10.3099 276.007 10.1222 276.007 9.93452C276.006 9.60186 276.005 9.2692 276.003 8.93655C276.003 8.87859 276.052 8.83202 276.111 8.83405C276.273 8.83891 276.435 8.84194 276.597 8.84494C276.653 8.84689 276.71 8.84885 276.768 8.85087C276.849 8.852 276.849 8.852 276.931 8.85315C277.006 8.85499 277.006 8.855 277.082 8.85687C277.224 8.84107 277.224 8.84107 277.326 8.72118C277.35 8.68803 277.367 8.66395 277.38 8.6434C277.449 8.5304 277.402 8.36992 277.303 8.28049C277.2 8.18696 277.052 8.1553 276.911 8.15593C276.889 8.15603 276.863 8.15646 276.829 8.157C276.771 8.15641 276.713 8.15581 276.653 8.15519C276.59 8.15529 276.527 8.15543 276.464 8.15561C276.399 8.1554 276.334 8.15516 276.269 8.15488C276.133 8.15446 275.998 8.15457 275.862 8.15504C275.688 8.15557 275.514 8.15463 275.34 8.15327C275.206 8.15241 275.072 8.15243 274.938 8.1527C274.873 8.1527 274.809 8.15241 274.745 8.15183C274.655 8.15114 274.566 8.15176 274.476 8.15244C274.455 8.15244 274.439 8.15243 274.427 8.15244C274.357 8.15245 274.286 8.15529 274.219 8.1767C274.163 8.19482 274.117 8.21925 274.073 8.25239ZM278.202 8.23451C278.098 8.30369 278.027 8.42237 278.011 8.54438C277.998 8.65162 278.001 8.76063 278.001 8.87204C278.001 8.90407 278.001 8.93609 278.001 8.96908C278 9.0747 278 9.18031 278 9.28592C278 9.35951 278 9.43308 278 9.50666C277.999 9.66082 277.999 9.81497 277.999 9.96913C277.999 10.1664 277.999 10.3638 277.998 10.5611C277.997 10.713 277.997 10.865 277.997 11.0169C277.997 11.0897 277.997 11.1624 277.997 11.2352C277.996 11.337 277.996 11.4388 277.996 11.5406C277.996 11.5985 277.996 11.6563 277.996 11.716C278.005 11.8315 278.021 11.9183 278.059 12.0126C278.084 12.0734 278.131 12.136 278.184 12.1761C278.275 12.2454 278.399 12.2369 278.5 12.1827C278.512 12.1763 278.523 12.1695 278.535 12.1621C278.626 12.1029 278.683 12.0033 278.699 11.8972C278.712 11.8113 278.715 11.7249 278.717 11.633C278.718 11.5863 278.719 11.5395 278.72 11.4913C278.721 11.4411 278.721 11.391 278.722 11.3393C278.724 11.2618 278.724 11.2618 278.725 11.1829C278.728 11.0181 278.731 10.8533 278.734 10.6885C278.736 10.5767 278.738 10.465 278.74 10.3532C278.742 10.2092 278.745 10.0651 278.747 9.92101C278.75 9.79208 278.916 9.73793 278.997 9.84012C279.019 9.86884 279.042 9.89755 279.065 9.92713C279.216 10.1198 279.364 10.315 279.509 10.5122C279.557 10.5777 279.604 10.6507 279.674 10.6932C279.777 10.7558 279.917 10.7312 280.026 10.679C280.092 10.6471 280.138 10.5974 280.211 10.5073C280.246 10.4653 280.281 10.4233 280.317 10.3801C280.356 10.331 280.394 10.2819 280.433 10.2327C280.479 10.1743 280.526 10.116 280.572 10.0576C280.663 9.94212 280.754 9.82612 280.844 9.70957C280.887 9.65451 280.912 9.62252 280.929 9.60052C280.951 9.57377 280.993 9.59015 280.993 9.62432C280.996 9.94281 281 10.2613 281.005 10.5798C281.006 10.6986 281.008 10.8175 281.009 10.9364C281.01 11.1072 281.013 11.278 281.015 11.4488C281.016 11.5021 281.016 11.5553 281.016 11.6101C281.017 11.6597 281.018 11.7093 281.019 11.7604C281.019 11.7736 281.019 11.7868 281.02 11.8001C281.02 11.8616 281.023 11.9238 281.041 11.9826C281.048 12.0041 281.056 12.0238 281.065 12.0426C281.121 12.1558 281.233 12.2476 281.36 12.2367C281.443 12.2297 281.53 12.1969 281.591 12.1426C281.602 12.1329 281.612 12.1229 281.621 12.1122C281.69 12.0252 281.701 11.9068 281.704 11.7965C281.706 11.7551 281.705 11.7099 281.704 11.6222C281.704 11.5883 281.705 11.5544 281.705 11.5194C281.705 11.4075 281.705 11.2956 281.705 11.1837C281.705 11.1058 281.705 11.0279 281.705 10.95C281.705 10.7869 281.705 10.6237 281.704 10.4606C281.704 10.2515 281.704 10.0424 281.705 9.83338C281.705 9.67257 281.705 9.51176 281.705 9.35095C281.705 9.27387 281.705 9.19679 281.705 9.11971C281.705 9.01195 281.705 8.90421 281.704 8.79645C281.704 8.73515 281.704 8.67385 281.704 8.61069C281.699 8.54804 281.694 8.49773 281.683 8.45114C281.652 8.322 281.556 8.20379 281.422 8.18568C281.345 8.17533 281.26 8.1929 281.192 8.2286C281.122 8.26533 281.078 8.31378 281.01 8.395C280.978 8.4329 280.946 8.47082 280.913 8.50987C280.748 8.716 280.584 8.92376 280.422 9.13271C280.412 9.14502 280.403 9.15732 280.393 9.1696C280.12 9.51842 279.602 9.53931 279.322 9.19553C279.294 9.16036 279.265 9.1252 279.235 9.08897C279.051 8.8631 278.869 8.63546 278.691 8.40414C278.666 8.37598 278.642 8.35003 278.617 8.3257C278.505 8.21492 278.333 8.14655 278.202 8.23451Z" fill="white"/>
</svg>
